<svg xmlns="http://www.w3.org/2000/svg" xmlns:xlink="http://www.w3.org/1999/xlink" width="534" height="386" viewBox="0 0 534 386">
    <defs>
        <path id="a" d="M.148.105h36.009V24.87H.148z"/>
        <path id="c" d="M.567 333h533V0h-533z"/>
    </defs>
    <g fill="none" fill-rule="evenodd">
        <text fill="#262C38" font-family="AvenirNext-Bold, Avenir Next" font-size="27" font-weight="bold" transform="translate(-1 -2)">
            <tspan x="70.117" y="27">SECCIÓN EN CONSTRUCCIÓN</tspan>
        </text>
        <g transform="translate(-1 53)">
            <path fill="#FF6F71" d="M486.753 171c-5.076-15.539-4.05-32.921 2.82-47.778 1.413-3.054 3.113-6.066 5.678-8.28 2.563-2.211 6.14-3.516 9.448-2.694 2.958.734 5.324 3.084 6.562 5.827 1.24 2.739 1.463 5.83 1.219 8.82-.73 8.968-5.394 17.113-10.119 24.818-4.187 6.828-8.61 13.69-14.782 18.867"/>
            <path fill="#31998C" d="M492.58 125.441a120.34 120.34 0 0 1 2.414 15.273c.045.48.616.31.57-.166a120.385 120.385 0 0 0-2.413-15.273c-.104-.46-.676-.3-.57.166M488.572 139.457l2.384 18.254c.063.484.67.314.607-.167l-2.384-18.255c-.063-.482-.67-.316-.607.168M504.979 136.102l-10.302 10.257c-.327.328.15.867.48.539l10.3-10.258c.329-.325-.15-.866-.478-.538M491.193 161.92a92.329 92.329 0 0 0 8.254-7.221c.349-.345-.138-.94-.487-.595a92.636 92.636 0 0 1-8.254 7.224c-.383.295.109.886.487.592"/>
            <g transform="translate(498.567 155)">
                <mask id="b" fill="#fff">
                    <use xlink:href="#a"/>
                </mask>
                <path fill="#FF6F71" d="M.544 24.522c2.71-5.49 5.492-11.03 9.514-15.627C14.08 4.3 19.541.68 25.592.16c2.998-.257 6.255.362 8.378 2.515 3.016 3.06 2.717 8.376.295 11.934-2.42 3.56-6.435 5.662-10.458 7.122A52.526 52.526 0 0 1 .148 24.549" mask="url(#b)"/>
            </g>
            <path fill="#31998C" d="M510.876 165.262c-.434 2.081-.866 4.166-1.299 6.248-.098.472.582.704.68.23l1.3-6.25c.098-.471-.582-.705-.68-.228M512.971 169.533c1.71.05 3.368.183 5.034.405.541.073.808-.384.264-.457a50.788 50.788 0 0 0-5.265-.427c-.559-.016-.593.462-.033.48"/>
            <path fill="#FF6F71" d="M467.118 198c-8.763-4.863-13.345-15.11-13.544-24.964-.084-4.22.61-8.66 3.238-12.005 2.63-3.344 7.608-5.172 11.446-3.248 2.16 1.082 3.653 3.142 4.62 5.319 2.426 5.457 1.96 11.763.357 17.503-1.605 5.74-3.834 11.69-5.79 17.322"/>
            <path fill="#257DAA" d="M457.738 174.724c1.314.834 2.118 2.962 3.036 4.28a35.94 35.94 0 0 0 3.143 3.876c.334.36.88-.17.546-.532-1.26-1.36-2.435-2.802-3.477-4.363-.869-1.304-1.52-3.085-2.847-3.926-.407-.26-.81.405-.401.665"/>
            <path fill="#31998C" d="M468.244 177.776l.139-.074-.488-.443a70.611 70.611 0 0 1-3.294 9.285c-.189.433.47.653.658.224a70.59 70.59 0 0 0 3.293-9.284c.087-.311-.218-.59-.487-.445a6.093 6.093 0 0 1-.139.076c-.397.217-.077.879.318.661"/>
            <path fill="#257DAA" d="M459.752 187.633a34.985 34.985 0 0 1 5.088 3.27c.383.298.99-.162.604-.46a36.008 36.008 0 0 0-5.248-3.388c-.444-.235-.89.342-.444.578"/>
            <path fill="#FF6F71" d="M492.567 219.404c2.715-7.328 8.42-13.054 14.814-17.06 4.576-2.866 9.877-5.017 15.13-4.15s10.198 5.58 10.053 11.213c-.101 3.953-2.64 7.507-5.85 9.521-3.207 2.014-7.003 2.703-10.726 2.952-7.817.526-15.672-.723-23.244-2.85"/>
            <path fill="#31998C" d="M513.895 206.184l-3.278 6.212c-.229.433.392.857.623.42l3.277-6.21c.23-.435-.391-.86-.622-.422M504.895 208.183l-3.278 6.213c-.229.433.392.858.623.42l3.277-6.21c.23-.435-.391-.859-.622-.423M504.894 214.596a45.239 45.239 0 0 1 10.23 2.379c.422.15.635-.416.216-.566a46.15 46.15 0 0 0-10.419-2.406c-.454-.052-.48.541-.027.593M460.302 253.75c7.097-21.115 14.195-42.226 21.291-63.341 6.974-20.745 14.638-41.413 18.966-62.923.095-.468-.617-.699-.712-.227-4.329 21.511-11.992 42.176-18.967 62.924-7.096 21.114-14.194 42.227-21.291 63.34-.153.457.558.685.713.227"/>
            <path fill="#31998C" d="M473.254 213.823c5.588-9.928 11.422-19.772 19.61-27.88 7.767-7.693 17.249-13.482 26.519-19.222.41-.254.065-.919-.348-.664-9.336 5.78-18.823 11.624-26.678 19.332-8.256 8.101-14.13 18.062-19.738 28.027-.236.419.4.828.635.407M462.579 175.446c4.414 17.828 6.002 35.944 4.748 54.18-.033.48.791.508.824.029 1.258-18.317-.336-36.471-4.769-54.374-.115-.47-.92-.306-.803.165M464.184 241.89c14.442-14.715 32.005-26.67 53.095-29.163.482-.059.314-.78-.166-.724-21.214 2.509-38.906 14.533-53.435 29.339-.336.342.169.894.506.549"/>
            <path fill="#2EC4B6" d="M458.342 250H103.791c-3.99 0-7.224-3.246-7.224-7.25V7.25c0-4.004 3.234-7.25 7.224-7.25h354.551c3.99 0 7.225 3.246 7.225 7.25v235.5c0 4.004-3.235 7.25-7.225 7.25"/>
            <mask id="d" fill="#fff">
                <use xlink:href="#c"/>
            </mask>
            <path fill="#EFF7FE" d="M102.567 235h355V9h-355z" mask="url(#d)"/>
            <path fill="#2AA092" d="M498.944 257H62.19c-5.315 0-9.622-4.477-9.622-10h456c0 5.523-4.308 10-9.623 10" mask="url(#d)"/>
            <path fill="#9EDDD5" d="M210.357 213h-88.58a3.209 3.209 0 0 1-3.21-3.207V85.205a3.207 3.207 0 0 1 3.21-3.205h88.58a3.207 3.207 0 0 1 3.21 3.205v124.588a3.209 3.209 0 0 1-3.21 3.207M321.357 213h-88.58a3.207 3.207 0 0 1-3.21-3.207V85.205a3.206 3.206 0 0 1 3.21-3.205h88.58a3.207 3.207 0 0 1 3.21 3.205v124.588a3.209 3.209 0 0 1-3.21 3.207M433.357 213h-88.58a3.207 3.207 0 0 1-3.21-3.207V85.205a3.206 3.206 0 0 1 3.21-3.205h88.58a3.207 3.207 0 0 1 3.21 3.205v124.588a3.209 3.209 0 0 1-3.21 3.207" mask="url(#d)"/>
            <path fill="#31998C" d="M210.084 73.877l-89.598-20.009c-2.705-.605-4.404-3.271-3.795-5.958l1.36-6.017c.609-2.687 3.294-4.375 5.998-3.77l89.598 20.009c2.705.603 4.404 3.271 3.797 5.958l-1.362 6.017c-.608 2.687-3.293 4.375-5.998 3.77" mask="url(#d)"/>
            <path fill="#FEC107" d="M127.567 24a3 3 0 1 1-6 0 3 3 0 0 1 6 0M136.567 24a3 3 0 1 1-6 0 3 3 0 0 1 6 0M145.567 24a3 3 0 1 1-6 0 3 3 0 0 1 6 0" mask="url(#d)"/>
            <path fill="#FFC108" d="M290.094 31h145.947c2.034 0 2.036-3 0-3H290.094c-2.034 0-2.037 3 0 3M290.094 41h145.947c2.034 0 2.036-3 0-3H290.094c-2.034 0-2.037 3 0 3" mask="url(#d)"/>
            <path fill="#31998C" d="M247.986 299h231.162c3.223 0 3.228-2 0-2H247.986c-3.222 0-3.227 2 0 2M101.831 333h216.471c3.018 0 3.023-2 0-2h-216.47c-3.017 0-3.022 2 0 2M3.986 263h231.163c3.222 0 3.227-2 0-2H3.986c-3.222 0-3.227 2 0 2" mask="url(#d)"/>
            <path fill="#FF6F71" d="M361.897 293.3c.39 1.563 2.108 2.653 3.888 3.006.948.19 1.93.21 2.882.382.953.169 1.919.517 2.505 1.196.317.369.506.862.324 1.296-.332.788-1.55.869-2.504.8-4.202-.298-8.383-.803-12.52-1.514-.17-.03-.343-.06-.48-.153-.213-.144-.28-.396-.319-.628a7.248 7.248 0 0 1 .777-4.685" mask="url(#d)"/>
            <path fill="#FF6F71" d="M347.567 293.647l.046 4.794c.003.36.017.752.247 1.03.26.32.716.399 1.13.438 1.94.19 3.897.045 5.84-.1 1.368-.1 2.775-.215 3.996-.827.424-.214.872-.634.706-1.071-.084-.223-.306-.36-.516-.477a10.125 10.125 0 0 0-2.064-.858c-.65-.189-1.323-.316-1.928-.613-1.14-.559-1.942-1.722-2.042-2.963" mask="url(#d)"/>
            <path fill="#2AA092" d="M337.986 206c-2.682 6.853-.996 14.1.444 21.24 1.44 7.14 2.594 14.37 3.87 21.535 2.672 15.002.587 30.577 4.27 45.412.274 1.102 1.7.84 3.253.607 2.55-.38 2.846.326 2.857-1.328.072-11.55-.172-22.095.437-33.138.442-7.984 2.114-15.887 2.404-23.876.35-9.634-1.317-19.244-3.596-28.67" mask="url(#d)"/>
            <path fill="#31998C" d="M337.778 204.896c-1.048 5.138-2.457 9.3.876 15.635 1.398 2.657 5.001 5.84 6.69 8.368 4.62 6.931 9.243 13.861 13.866 20.793 1.176 1.764 2.371 3.57 2.824 5.572.538 2.383-.02 4.835-.544 7.221a264.12 264.12 0 0 0-4.759 29.593c-.062.6-.66 1.553-.224 2.02.46.49 2.79.627 4.336.773.514.049 1.648.248 2.097.027.588-.293.218-.383.37-.955l9.377-35.097c.456-1.707.913-3.433.879-5.185-.04-1.958-.696-3.863-1.346-5.739-3.006-8.678-6.02-17.376-10.045-25.736-2.984-6.199-6.587-12.47-6.473-19.186" mask="url(#d)"/>
            <path fill="#EDC1B2" d="M354.567 155.114a32.614 32.614 0 0 0-.382 7.42c.009.137.004.305-.123.373a.411.411 0 0 1-.175.036c-2.22.144-4.46.013-6.644-.388-.265-.048-.574-.138-.656-.38-.041-.122-.01-.256.022-.38a41.695 41.695 0 0 0 1.204-8.795" mask="url(#d)"/>
            <path fill="#FBD1BF" d="M356.785 141c3.037 3.983 3.655 9.811 1.522 14.388-.074.16-.154.324-.287.433-.208.175-.5.182-.767.178a15.521 15.521 0 0 1-7.686-2.25" mask="url(#d)"/>
            <path fill="#FF6F71" d="M409.93 226h-15.677l-2.686 7h21zM404.592 209.954c-.502-1.268-2.462-1.274-2.972-.008L397.567 220h11l-3.975-10.046zM387.663 247.853c-.368 1.043.37 2.147 1.432 2.147h27.945c1.057 0 1.795-1.097 1.435-2.137L415.752 240h-25.318l-2.77 7.853z" mask="url(#d)"/>
            <path fill="#FFF" d="M392.026 234l-2.459 7h26l-2.412-7zM408.121 220h-11.06l-2.494 7h16z" mask="url(#d)"/>
            <path fill="#F33959" d="M419.31 255h-33.486c-1.791 0-3.257-1.574-3.257-3.5 0-1.924 1.466-3.5 3.257-3.5h33.485c1.791 0 3.258 1.576 3.258 3.5 0 1.926-1.467 3.5-3.258 3.5" mask="url(#d)"/>
            <path fill="#FF6F71" d="M177.926 207h-21.65l-3.709 10h29zM168.147 183.475a2.133 2.133 0 0 0-4.054-.013L158.567 199h15l-5.42-15.525zM144.703 237.21c-.522 1.352.526 2.79 2.035 2.79h39.66c1.503 0 2.55-1.427 2.038-2.778L184.571 227h-35.934l-3.934 10.21z" mask="url(#d)"/>
            <path fill="#FFF" d="M150.97 218l-3.403 9h36l-3.34-9zM173.357 198h-14.518l-3.272 9h21z" mask="url(#d)"/>
            <path fill="#F33959" d="M190.007 246h-46.88c-2.507 0-4.56-2.024-4.56-4.5 0-2.474 2.053-4.5 4.56-4.5h46.88c2.507 0 4.56 2.026 4.56 4.5 0 2.476-2.053 4.5-4.56 4.5" mask="url(#d)"/>
            <path fill="#31998C" d="M432.447 83.275a88.616 88.616 0 0 1-1.21 34.23c-.549 2.34-1.227 4.726-2.705 6.62-1.478 1.897-3.94 3.203-6.28 2.662-3.51-.813-4.938-4.989-5.51-8.555-.569-3.563-1.233-7.71-4.382-9.466-2.91-1.622-6.776-.23-8.9 2.34-2.124 2.57-2.872 5.992-3.307 9.3-.819 6.223-.822 12.742-3.55 18.393-.77 1.594-1.846 3.174-3.48 3.854-3.615 1.504-7.325-2.15-8.847-5.765-4.499-10.68-.959-23.249-4.444-34.303-.657-2.081-1.629-4.176-3.37-5.489-1.742-1.314-4.42-1.581-6.025-.103-.734.676-1.166 1.62-1.48 2.57-.815 2.46-.979 5.096-1.773 7.562-.794 2.465-2.463 4.904-4.975 5.516-2.39.582-4.934-.697-6.497-2.6-1.563-1.9-2.324-4.327-2.926-6.715A73.067 73.067 0 0 1 350.65 82h81.722l.075 1.275z" mask="url(#d)"/>
            <path fill="#257DAA" d="M372.107 109.553l-5.528 31.675c-.153.87 1.298 1.089 1.449.22l5.528-31.676c.151-.869-1.298-1.09-1.45-.219" mask="url(#d)"/>
            <path fill="#FF6F71" d="M382.975 112.975l-20.76-3.282c-1.07-.168-1.796-1.15-1.622-2.192l.317-1.897c.174-1.041 1.181-1.749 2.25-1.579l20.76 3.282c1.069.169 1.795 1.15 1.622 2.192l-.317 1.897c-.174 1.042-1.18 1.748-2.25 1.58M348.04 164.739c1.4-1.91 1.48-4.652 3.693-4.857 4.745-.443 11.344-.775 15.12-3.993.853-.729 1.728-1.482 2.273-2.512.944-1.779.727-4.005.48-6.052l-1.518-12.63c-.128-1.06.328-1.143 1.238-1.506 1.113-.44 1.515-.132 1.803 1.141 1.306 5.74 2.615 11.497 3.267 17.373.185 1.67.313 3.398-.122 5.011-.615 2.276-2.255 4.003-3.821 5.624-3.79 3.919-5.39 4.778-9.816 9.107-.932.91-2.527 4.919-3.087 6.138-.67 1.466-1.086 3.984-1.203 5.622-.293 4.07.029 7.178-.264 11.248-.41 5.712.743 13.87 1.447 19.547-6.401-.335-15.621.264-21.963-.763.3-4.758.697-13.25.676-18.02-.024-4.985-.22-9.99.277-14.946.498-4.956 1.739-9.927 4.338-13.995.434-.679.96-1.371 1.69-1.559.833-.21 1.658.288 2.458.62.801.329 1.859.418 2.36-.348" mask="url(#d)"/>
            <path fill="#31998C" d="M355.147 136.346c1.376 1.146 1.674 3.23 1.228 4.98-.444 1.75-1.49 3.266-2.446 4.792-.955 1.524-1.861 3.172-1.967 4.977-.085 1.48.377 2.929.61 4.394.754 4.737-1.064 9.816-4.64 12.953-1.15 1.01-2.493 1.862-3.284 3.18-1.389 2.31-.688 5.252-.401 7.942.314 2.97.046 6.052-1.144 8.783-1.192 2.731-3.367 5.08-6.127 6.11-2.757 1.034-6.086.6-8.287-1.38-2.19-1.97-3.01-5.108-3.111-8.078-.095-2.852.426-5.846 2.154-8.096.617-.805 1.375-1.495 1.961-2.325 1.821-2.575 1.73-6.033 1.367-9.183-.36-3.15-.899-6.451.236-9.404 1.576-4.103 6.012-6.534 7.538-10.654.557-1.503.689-3.15 1.326-4.621.627-1.452 1.715-2.652 2.903-3.685 1.72-1.498 3.764-2.726 6.013-2.986 2.252-.26 4.72.614 5.938 2.554" mask="url(#d)"/>
            <path fill="#FBD1BF" d="M369.108 135c-.648-.293-1.062-.983-1.386-1.66a16.28 16.28 0 0 1-1.088-2.965c-.07-.27-.124-.59.046-.8.262-.33.773-.061 1.008.292.238.353.423.812.808.929.24.074.502-.012.715-.153.69-.459.971-1.402 1.018-2.28.044-.876-.09-1.762.012-2.635a.943.943 0 0 1 .088-.337.676.676 0 0 1 .31-.277c.484-.237 1.076-.083 1.5.264.426.349.709.865.934 1.39.217.507.39 1.04.459 1.593.254 2.014-.891 3.957-2.321 5.26-.454.413-.943.789-1.311 1.289" mask="url(#d)"/>
            <path fill="#FFC108" d="M338.307 147c-1.377-3.74-.814-8.4 1.547-11.598 2.363-3.197 6.547-4.97 10.426-4.238 3.88.73 7.208 4.028 7.83 7.967.134.853.302 1.921 1.122 2.161 1.036.302 2.75-.382 3.335.532-2.346.905-4.684 1.38-7.008 1.969-1.383.35-2.788.604-4.194.857L338.307 147M67.292 263.433c2.715-6.644 5.428-13.288 8.142-19.933l5.764-14.108c.501-1.231 3.59-7.294 2.167-7.265-1.478.03 1.495 5.486 1.998 6.689 1.94 4.642 3.883 9.285 5.824 13.927l8.653 20.69c.417.998 2.082.559 1.659-.452l-17.305-41.378c-.332-.798-1.33-.81-1.659 0l-16.902 41.378c-.415 1.014 1.25 1.456 1.66.452M24.292 263.433l8.143-19.933 5.762-14.108c.503-1.231 3.591-7.294 2.168-7.265-1.48.03 1.495 5.486 1.998 6.689 1.94 4.642 3.883 9.285 5.824 13.927l8.652 20.69c.419.998 2.082.559 1.66-.452l-17.305-41.378c-.332-.798-1.329-.81-1.659 0-5.634 13.792-11.269 27.585-16.902 41.378-.415 1.014 1.249 1.456 1.66.452" mask="url(#d)"/>
            <path fill="#FFC108" d="M41.034 224H82.1c3.285 0 3.292-6 0-6H41.034c-3.286 0-3.292 6 0 6M34.38 238h55.374c1.084 0 1.085-2 0-2H34.38c-1.083 0-1.084 2 0 2M26.388 256h71.358c1.094 0 1.096-2 0-2H26.388c-1.094 0-1.095 2 0 2" mask="url(#d)"/>
            <path fill="#F56046" d="M72.006 148c1.75-10.904-.635-22.442-6.554-31.71-1.216-1.906-2.615-3.754-4.495-4.982-1.878-1.228-4.324-1.748-6.385-.871-1.843.784-3.14 2.591-3.671 4.549-.532 1.957-.37 4.05.083 6.028 1.359 5.931 5.185 10.924 9.008 15.617 3.388 4.157 6.93 8.315 11.438 11.17" mask="url(#d)"/>
            <path fill="#257DAA" d="M63.406 118.262a102.288 102.288 0 0 0-.34 10.511c.007.326-.314.289-.32-.036-.067-3.52.046-7.022.339-10.511.027-.324.348-.289.32.036M68.264 127.246l-.072 11.541c-.002.306-.323.272-.321-.034l.072-11.54c.002-.306.323-.27.32.033M55.963 125.052l8.495 6.44c.271.206-.016.662-.287.455-2.832-2.146-5.662-4.293-8.495-6.438-.27-.207.016-.662.287-.457M68.158 140.972a65.287 65.287 0 0 1-6.477-3.525c-.278-.171.007-.577.286-.406a64.787 64.787 0 0 0 6.476 3.523c.296.141.008.546-.285.408" mask="url(#d)"/>
            <path fill="#FF6F71" d="M64.298 154.817c-2.38-3.407-4.816-6.84-7.992-9.512-3.178-2.674-7.228-4.547-11.365-4.28-2.05.133-4.187.88-5.403 2.541-1.73 2.36-.994 5.893.998 8.035 1.992 2.14 4.913 3.14 7.777 3.712a36.08 36.08 0 0 0 16.254-.519" mask="url(#d)"/>
            <path fill="#257DAA" d="M55.035 146.128l1.514 3.546c.114.267-.334.468-.45.198-.504-1.183-1.008-2.366-1.513-3.546-.114-.269.334-.467.449-.198M54.392 149.38c-.862.127-1.686.306-2.502.546-.264.077-.463-.21-.196-.289.85-.25 1.715-.44 2.615-.573.282-.042.367.274.083.315" mask="url(#d)"/>
            <path fill="#FF6F71" d="M88.679 165c5.516-4.16 7.589-11.538 6.684-18.22-.387-2.859-1.335-5.79-3.497-7.79-2.164-2-5.784-2.74-8.221-1.06-1.373.947-2.182 2.487-2.62 4.055-1.091 3.93-.104 8.146 1.607 11.865 1.709 3.719 3.871 7.52 5.814 11.133" mask="url(#d)"/>
            <path fill="#31998C" d="M91.477 147.484c-.818.733-1.162 2.31-1.662 3.336a26.734 26.734 0 0 1-1.775 3.064c-.194.29-.617-.019-.423-.31a25.598 25.598 0 0 0 1.955-3.443c.468-1.01.745-2.326 1.569-3.066.252-.226.59.192.336.42M85.784 150.58l-.083-.04.24-.386a58.446 58.446 0 0 0 2.594 6.467c.14.298-.215.54-.353.246a58.482 58.482 0 0 1-2.596-6.467c-.073-.218.078-.462.242-.386l.083.038c.242.113.115.639-.127.528M91.49 156.39c-.912.768-1.74 1.602-2.494 2.522-.183.223-.564-.023-.38-.247a19.88 19.88 0 0 1 2.572-2.61c.222-.188.524.148.301.336" mask="url(#d)"/>
            <path fill="#FF6F71" d="M72.567 180.948c-2.53-4.384-6.922-7.444-11.613-9.345-3.357-1.359-7.137-2.188-10.594-1.106-3.457 1.081-6.339 4.578-5.705 8.146.446 2.501 2.496 4.504 4.852 5.46 2.354.956 4.979 1.01 7.511.79 5.32-.457 10.493-2.045 15.395-4.163" mask="url(#d)"/>
            <path fill="#31998C" d="M57.961 174.088c.853 1.167 1.704 2.336 2.556 3.504.179.245-.165.565-.345.32-.851-1.169-1.704-2.336-2.555-3.504-.178-.245.166-.565.344-.32M63.962 174.088c.852 1.167 1.703 2.337 2.555 3.505.179.244-.165.565-.345.318l-2.555-3.503c-.178-.245.165-.565.345-.32M64.36 178.42a34.905 34.905 0 0 0-7.417 2.549c-.297.141-.537-.236-.24-.376 2.37-1.13 4.877-1.983 7.555-2.584.338-.076.438.334.102.411M98.085 199.864l-20.548-40.269c-6.73-13.19-13.913-26.258-18.953-40.226-.11-.304.342-.53.454-.223 5.04 13.968 12.223 27.034 18.952 40.225l20.548 40.269c.148.29-.304.515-.453.224" mask="url(#d)"/>
            <path fill="#31998C" d="M86.13 174.906c-4.715-6.192-9.587-12.3-15.847-16.99-5.937-4.45-12.82-7.436-19.558-10.409-.297-.132-.136-.617.166-.484 6.785 2.993 13.676 6.011 19.674 10.465 6.303 4.68 11.213 10.864 15.946 17.078.2.26-.181.603-.38.34M88.31 148.261a145.638 145.638 0 0 0 2.252 36.45c.06.316-.376.41-.437.093a146.007 146.007 0 0 1-2.259-36.579c.02-.323.464-.287.443.036M94.183 191.948c-11.134-8.509-24.067-14.842-38.39-14.423-.325.01-.287-.496.038-.505 14.406-.42 27.433 5.945 38.633 14.506.26.198-.02.622-.281.422" mask="url(#d)"/>
            <path fill="#FBD1BF" d="M111.567 50.891c1.693-.491 2.798-2.109 3.71-3.646.915-1.535 1.888-3.199 3.507-3.903.233-.101.507-.179.73-.056.644.342.009 1.635.647 1.987.204.112.453.062.676.008a23.781 23.781 0 0 0 4.975-1.854c.421-.212.86-.445 1.332-.426 1.174.042 1.743 1.674 1.239 2.757-.504 1.08-1.63 1.688-2.692 2.203a92.776 92.776 0 0 1-7.8 3.336c-1.024.382-2.087.754-3.176.697" mask="url(#d)"/>
            <path fill="#FF6F71" d="M76.111 207.6c-.591 2.973.673 6.25 3.092 8.004 3.143 2.282 7.77 2.049 10.364 4.966-.561 1.291-2.248 1.49-3.625 1.417a34.363 34.363 0 0 1-13.95-3.806c-.56-.29-1.125-.605-1.548-1.08-1.011-1.134-.976-2.868-.735-4.383A23.445 23.445 0 0 1 71.39 207M45.74 209.703c-.162.66-.393 1.315-.408 1.995-.049 2.017 1.762 3.612 3.6 4.567 1.838.952 3.923 1.619 5.305 3.129.213.236.417.554.292.84-.084.189-.286.299-.48.382-1.269.529-2.721.434-4.078.176-2.877-.546-5.565-1.755-8.22-2.957-.765-.346-1.548-.705-2.12-1.304-.952-1-1.136-2.48-1.042-3.837A12.344 12.344 0 0 1 41.17 206" mask="url(#d)"/>
            <path fill="#2EC4B6" d="M64.567 133.536c-.066 24.512-8.73 48.11-16.122 71.548-.473 1.5-.966 3.042-1.995 4.25-1.03 1.21-2.748 2.007-4.284 1.522-1.453-.46-2.352-1.944-2.547-3.413-.192-1.47.184-2.949.55-4.39 5.872-23.092 9.727-47.234 5.275-70.625-1.15-6.053-2.852-12.014-3.558-18.132-.703-6.117-2.863-15.766-.076-21.296" mask="url(#d)"/>
            <path fill="#31998C" d="M72.271 99c5.418 18.117 10.879 36.501 11.273 55.395.29 13.864-2.164 27.622-4.608 41.275l-2.408 13.448c-.107.605-.223 1.228-.564 1.741-1.104 1.657-3.631 1.2-5.522.55-.82-.282-1.714-.622-2.132-1.376-.336-.604-.287-1.336-.23-2.022l2.688-31.905c.503-5.978 1.005-12.016.151-17.955-3.03-21.056-22.387-37.351-24.352-58.532" mask="url(#d)"/>
            <path fill="#FBD1BF" d="M68.606 12c.99.148 1.806.948 2.254 1.888.447.94.575 2.008.643 3.057a30.4 30.4 0 0 1-.396 7.246c-.21 1.194-.55 2.47-1.468 3.209-1.329 1.07-3.267.55-4.727-.313-1.202-.707-2.288-1.61-3.368-2.505-.571-.473-1.145-.951-1.612-1.535-.987-1.23-1.437-2.885-1.355-4.491" mask="url(#d)"/>
            <path fill="#FBD1BF" d="M64.567 25.653A23.645 23.645 0 0 0 62.9 34.82c.006.32.01.673-.194.922-.437.533-1.283.136-1.868-.228a10.11 10.11 0 0 0-6.27-1.482A27.719 27.719 0 0 0 58.457 21" mask="url(#d)"/>
            <path fill="#31998C" d="M55.997 25.544c1.168 1.329 3.198 1.82 4.847 1.172 1.647-.647 2.8-2.387 2.75-4.155-.02-.646-.182-1.29-.147-1.935.102-1.884 1.84-3.29 3.622-3.912 1.782-.62 3.717-.717 5.49-1.368 3.255-1.198 5.683-4.378 5.977-7.834.133-1.545-.153-3.163-1.029-4.443-.875-1.281-2.395-2.167-3.943-2.06-1.487.102-2.762 1.04-4.008 1.858a30.986 30.986 0 0 1-5.342 2.8c-2.101.85-4.33 1.488-6.176 2.806-2.573 1.837-4.147 4.906-4.423 8.054-.277 3.146.679 6.34 2.397 8.992" mask="url(#d)"/>
            <path fill="#FF6F71" d="M57.637 29c2.658.47 4.881 2.29 6.643 4.323 5.885 6.792 7.75 16.161 8.09 25.12.338 8.957-.623 17.98.567 26.864.65 4.852 1.935 9.6 2.592 14.449.061.442.09.958-.24 1.26-.197.18-.476.234-.74.281l-9.555 1.695c-2.568.454-5.146.91-7.753.994-1.837.058-3.674-.07-5.508-.199-2.642-.186-5.284-.372-7.926-.556-.733-.052-1.54-.136-2.047-.665-.511-.53-.557-1.34-.571-2.074-.184-8.562-.365-17.125-.55-25.687-.103-4.871-.204-9.768.521-14.584.64-4.24 1.911-8.358 3.316-12.41C46.792 41.127 51.366 32.34 57.637 29" mask="url(#d)"/>
            <path fill="#F33959" d="M54.892 37.62c3.115-1.21 6.665-.47 9.795.703 9.593 3.593 18.007 11.145 28.282 11.263 4.177.047 8.243-1.175 12.352-1.913 4.108-.74 6.187-.95 10.222.142.306.084 1.194 2.007 1.366 2.267.55.831 1.056.99.2 1.52-4.205 2.62-9.361 3.206-14.32 3.724l-12.69 1.334c-2.171.226-4.36.456-6.536.274-2.956-.245-5.787-1.234-8.577-2.216-6.15-2.16-12.354-4.347-17.906-7.717-1.641-.996-3.29-2.171-4.1-3.886-.808-1.714-.448-4.087 1.245-4.997" mask="url(#d)"/>
        </g>
    </g>
</svg>
